<svg width="2" height="10" viewBox="0 0 2 10" fill="none" xmlns="http://www.w3.org/2000/svg">
<path fill-rule="evenodd" clip-rule="evenodd" d="M0.0220223 1.08332C0 1.17314 0 1.28209 0 1.5V5.5C0 5.71791 0 5.82686 0.0220223 5.91668C0.0899472 6.19374 0.306264 6.41005 0.583316 6.47798C0.67314 6.5 0.782093 6.5 1 6.5C1.21791 6.5 1.32686 6.5 1.41668 6.47798C1.69374 6.41005 1.91005 6.19374 1.97798 5.91668C2 5.82686 2 5.71791 2 5.5V1.5C2 1.28209 2 1.17314 1.97798 1.08332C1.91005 0.806264 1.69374 0.589947 1.41668 0.522022C1.32686 0.5 1.21791 0.5 1 0.5C0.782093 0.5 0.67314 0.5 0.583316 0.522022C0.306264 0.589947 0.0899472 0.806264 0.0220223 1.08332ZM1 7.5C0.447715 7.5 0 7.94772 0 8.5C0 9.05229 0.447715 9.5 1 9.5C1.55228 9.5 2 9.05229 2 8.5C2 7.94772 1.55228 7.5 1 7.5Z" fill="#FFFFFF"/>
</svg>
